<svg width="128" height="128" viewBox="0 0 128 128" fill="none" xmlns="http://www.w3.org/2000/svg">
<rect width="128" height="128" rx="10" fill="#0058DB"/>
<path d="M46.1811 32.76H24.2931L23.3331 40.152C24.3891 41.592 26.5011 42.84 28.8051 43.704V88.056C26.5971 88.92 24.6771 90.168 23.5251 91.608L24.4851 99H43.3011L44.2611 91.608C43.1091 90.168 41.1891 88.92 38.9811 88.056V62.808C38.9811 57.144 38.1171 48.6 38.1171 48.6L39.0771 48.504C39.0771 48.504 40.9971 56.76 42.9171 61.464L56.3571 99H69.1251L81.8931 61.464C83.5251 56.664 85.7331 48.504 85.7331 48.504L86.6931 48.6C86.6931 48.6 85.8291 57.144 85.8291 62.808V87.768C83.6211 88.632 81.7011 89.688 80.5491 91.128L81.5091 99H103.397L104.357 91.032C103.205 89.592 101.285 88.536 99.0771 87.672V43.704C101.381 42.84 103.493 41.592 104.549 40.152L103.589 32.76H82.0851L68.7411 71.448C65.6691 78.84 65.2851 84.696 65.2851 84.696H63.9411C63.9411 84.696 63.3651 79.032 60.1971 71.448L46.1811 32.76Z" fill="white"/>
<path d="M64 3L67.1432 12.6738H77.3148L69.0858 18.6525L72.229 28.3262L64 22.3475L55.771 28.3262L58.9142 18.6525L50.6852 12.6738H60.8568L64 3Z" fill="#F0CA00"/>
</svg>
