<svg width="128" height="128" viewBox="0 0 128 128" fill="none" xmlns="http://www.w3.org/2000/svg">
<rect width="128" height="128" fill="white"/>
<path d="M49.8934 44.56H32.5654L31.8054 50.412C32.6414 51.552 34.3134 52.54 36.1374 53.224V88.336C34.3894 89.02 32.8694 90.008 31.9574 91.148L32.7174 97H47.6134L48.3734 91.148C47.4614 90.008 45.9414 89.02 44.1934 88.336V68.348C44.1934 63.864 43.5094 57.1 43.5094 57.1L44.2694 57.024C44.2694 57.024 45.7894 63.56 47.3094 67.284L57.9494 97H68.0574L78.1654 67.284C79.4574 63.484 81.2054 57.024 81.2054 57.024L81.9654 57.1C81.9654 57.1 81.2814 63.864 81.2814 68.348V88.108C79.5334 88.792 78.0134 89.628 77.1014 90.768L77.8614 97H95.1894L95.9494 90.692C95.0374 89.552 93.5174 88.716 91.7694 88.032V53.224C93.5934 52.54 95.2654 51.552 96.1014 50.412L95.3414 44.56H78.3174L67.7534 75.188C65.3214 81.04 65.0174 85.676 65.0174 85.676H63.9534C63.9534 85.676 63.4974 81.192 60.9894 75.188L49.8934 44.56Z" fill="#0058DB"/>
<path d="M64 16L66.6942 24.2918H75.4127L68.3593 29.4164L71.0534 37.7082L64 32.5836L56.9466 37.7082L59.6407 29.4164L52.5873 24.2918H61.3058L64 16Z" fill="#F0CA00"/>
</svg>
